<svg viewBox="0 0 24 25" fill="none" xmlns="http://www.w3.org/2000/svg">
  <path
    d="M12 2.5C10.6868 2.5 9.38642 2.75866 8.17317 3.2612C6.95991 3.76375 5.85752 4.50035 4.92893 5.42893C3.05357 7.3043 2 9.84784 2 12.5C2 16.92 4.87 20.67 8.84 22C9.34 22.08 9.5 21.77 9.5 21.5V19.81C6.73 20.41 6.14 18.47 6.14 18.47C5.68 17.31 5.03 17 5.03 17C4.12 16.38 5.1 16.4 5.1 16.4C6.1 16.47 6.63 17.43 6.63 17.43C7.5 18.95 8.97 18.5 9.54 18.26C9.63 17.61 9.89 17.17 10.17 16.92C7.95 16.67 5.62 15.81 5.62 12C5.62 10.89 6 10 6.65 9.29C6.55 9.04 6.2 8 6.75 6.65C6.75 6.65 7.59 6.38 9.5 7.67C10.29 7.45 11.15 7.34 12 7.34C12.85 7.34 13.71 7.45 14.5 7.67C16.41 6.38 17.25 6.65 17.25 6.65C17.8 8 17.45 9.04 17.35 9.29C18 10 18.38 10.89 18.38 12C18.38 15.82 16.04 16.66 13.81 16.91C14.17 17.22 14.5 17.83 14.5 18.76V21.5C14.5 21.77 14.66 22.09 15.17 22C19.14 20.66 22 16.92 22 12.5C22 11.1868 21.7413 9.88642 21.2388 8.67317C20.7362 7.45991 19.9997 6.35752 19.0711 5.42893C18.1425 4.50035 17.0401 3.76375 15.8268 3.2612C14.6136 2.75866 13.3132 2.5 12 2.5Z"
    fill="currentColor"
  />
</svg>
