<svg viewBox="0 0 24 25" fill="none" xmlns="http://www.w3.org/2000/svg">
  <path
    d="M22.5 8.77158C22.4624 10.0772 21.9256 11.3187 21 12.2403L17.7422 15.5C17.2678 15.9771 16.7034 16.3553 16.0817 16.6128C15.4601 16.8703 14.7935 17.0019 14.1207 17H14.116C13.4316 16.9995 12.7543 16.8619 12.1241 16.5953C11.4938 16.3286 10.9234 15.9384 10.4465 15.4476C9.96958 14.9568 9.59587 14.3754 9.34744 13.7377C9.099 13.1001 8.98088 12.4191 9.00005 11.735C9.00564 11.5361 9.09002 11.3476 9.23463 11.2109C9.37924 11.0742 9.57223 11.0005 9.77114 11.0061C9.97005 11.0117 10.1586 11.0961 10.2953 11.2407C10.432 11.3853 10.5056 11.5783 10.5 11.7772C10.4864 12.2609 10.5698 12.7424 10.7454 13.1933C10.921 13.6442 11.1852 14.0553 11.5224 14.4023C11.8596 14.7494 12.2629 15.0253 12.7085 15.2139C13.1541 15.4024 13.633 15.4997 14.1169 15.5C14.5926 15.5012 15.0637 15.4081 15.5032 15.2261C15.9426 15.0441 16.3417 14.7768 16.6772 14.4397L19.935 11.1819C20.6072 10.5013 20.9828 9.58238 20.9798 8.62581C20.9768 7.66924 20.5955 6.75271 19.9191 6.07631C19.2427 5.39991 18.3261 5.01859 17.3696 5.0156C16.413 5.0126 15.4941 5.38818 14.8135 6.06033L13.7822 7.09158C13.6404 7.2263 13.4516 7.30029 13.2561 7.29779C13.0605 7.29528 12.8736 7.21648 12.7353 7.07818C12.597 6.93988 12.5182 6.75302 12.5157 6.55745C12.5132 6.36188 12.5872 6.17307 12.7219 6.03127L13.7532 5.00002C14.2289 4.52408 14.7938 4.14653 15.4155 3.88895C16.0373 3.63136 16.7036 3.49878 17.3766 3.49878C18.0496 3.49878 18.716 3.63136 19.3377 3.88895C19.9594 4.14653 20.5243 4.52408 21 5.00002C21.4928 5.49404 21.88 6.08318 22.1378 6.73157C22.3957 7.37996 22.5189 8.07405 22.5 8.77158ZM10.2188 17.9056L9.18755 18.9369C8.85122 19.2755 8.45093 19.5439 8.00993 19.7264C7.56894 19.9089 7.09606 20.0019 6.6188 20C5.90283 19.9994 5.2031 19.7867 4.60801 19.3886C4.01293 18.9905 3.54919 18.4249 3.2754 17.7634C3.00161 17.1018 2.93006 16.374 3.06977 15.6718C3.20948 14.9695 3.5542 14.3245 4.06036 13.8181L7.31255 10.5603C7.82478 10.0454 8.48002 9.69637 9.19316 9.5586C9.9063 9.42083 10.6444 9.50068 11.3116 9.78777C11.9788 10.0749 12.5442 10.5559 12.9345 11.1685C13.3247 11.7811 13.5218 12.4968 13.5 13.2228C13.4945 13.4217 13.5681 13.6147 13.7048 13.7593C13.8415 13.9039 14.03 13.9883 14.229 13.9939C14.4279 13.9995 14.6209 13.9259 14.7655 13.7892C14.9101 13.6525 14.9945 13.4639 15 13.265C15.0181 12.5686 14.8944 11.8757 14.6365 11.2285C14.3787 10.5813 13.992 9.99327 13.5 9.50002C12.5393 8.53967 11.2364 8.00019 9.87801 8.00019C8.51958 8.00019 7.21675 8.53967 6.25598 9.50002L3.00005 12.7578C2.28401 13.4736 1.79622 14.3855 1.59831 15.3784C1.4004 16.3713 1.50125 17.4006 1.88813 18.3361C2.275 19.2717 2.93053 20.0716 3.77188 20.6348C4.61323 21.1979 5.60263 21.499 6.61505 21.5C7.28805 21.502 7.95475 21.3704 8.57656 21.1129C9.19837 20.8554 9.76292 20.4772 10.2375 20L11.2688 18.9688C11.3902 18.8258 11.4536 18.6426 11.4465 18.4551C11.4395 18.2677 11.3624 18.0898 11.2307 17.9563C11.0989 17.8229 10.9219 17.7437 10.7346 17.7343C10.5473 17.7249 10.3633 17.7861 10.2188 17.9056Z"
    fill="currentColor"
  />
</svg>
