<svg viewBox="0 0 16 16" fill="none" xmlns="http://www.w3.org/2000/svg">
  <mask
    id="mask"
    style="mask-type: alpha"
    maskUnits="userSpaceOnUse"
    x="0"
    y="0"
    width="16"
    height="16"
  >
    <rect width="16" height="16" fill="#D9D9D9" />
  </mask>
  <g mask="url(#mask)">
    <path
      d="M8.06665 14.6667C7.13331 14.6667 6.25831 14.4889 5.44165 14.1333C4.62498 13.7778 3.91387 13.2972 3.30831 12.6917C2.70276 12.0861 2.2222 11.375 1.86665 10.5583C1.51109 9.74166 1.33331 8.86666 1.33331 7.93333C1.33331 6.31111 1.84998 4.88055 2.88331 3.64166C3.91665 2.40277 5.23331 1.63333 6.83331 1.33333C6.63331 2.43333 6.69442 3.50833 7.01665 4.55833C7.33887 5.60833 7.89442 6.52777 8.68331 7.31666C9.4722 8.10555 10.3916 8.66111 11.4416 8.98333C12.4916 9.30555 13.5666 9.36666 14.6666 9.16666C14.3778 10.7667 13.6111 12.0833 12.3666 13.1167C11.1222 14.15 9.68887 14.6667 8.06665 14.6667ZM8.06665 13.3333C9.04442 13.3333 9.94998 13.0889 10.7833 12.6C11.6166 12.1111 12.2722 11.4389 12.75 10.5833C11.7944 10.4944 10.8889 10.2528 10.0333 9.85833C9.17776 9.46388 8.41109 8.92777 7.73331 8.24999C7.05553 7.57222 6.51665 6.80555 6.11665 5.94999C5.71665 5.09444 5.47776 4.18888 5.39998 3.23333C4.54442 3.71111 3.87498 4.36944 3.39165 5.20833C2.90831 6.04722 2.66665 6.95555 2.66665 7.93333C2.66665 9.43333 3.19165 10.7083 4.24165 11.7583C5.29165 12.8083 6.56665 13.3333 8.06665 13.3333Z"
      fill="currentColor"
    />
  </g>
</svg>
