<svg viewBox="0 0 16 16" fill="none" xmlns="http://www.w3.org/2000/svg">
  <path
    d="M7.27273 2.90909V0H8.72727V2.90909H7.27273ZM12.1091 4.90909L11.1091 3.90909L13.1455 1.81818L14.1636 2.85455L12.1091 4.90909ZM13.0909 8.72727V7.27273H16V8.72727H13.0909ZM7.27273 16V13.0909H8.72727V16H7.27273ZM3.89091 4.87273L1.81818 2.85455L2.85455 1.83636L4.90909 3.89091L3.89091 4.87273ZM13.1273 14.1818L11.1091 12.0909L12.0909 11.1091L14.1636 13.1091L13.1273 14.1818ZM0 8.72727V7.27273H2.90909V8.72727H0ZM2.85455 14.1818L1.83636 13.1455L3.87273 11.1091L4.4 11.6L4.92727 12.1091L2.85455 14.1818ZM8 12.3636C6.78788 12.3636 5.75758 11.9394 4.90909 11.0909C4.06061 10.2424 3.63636 9.21212 3.63636 8C3.63636 6.78788 4.06061 5.75758 4.90909 4.90909C5.75758 4.06061 6.78788 3.63636 8 3.63636C9.21212 3.63636 10.2424 4.06061 11.0909 4.90909C11.9394 5.75758 12.3636 6.78788 12.3636 8C12.3636 9.21212 11.9394 10.2424 11.0909 11.0909C10.2424 11.9394 9.21212 12.3636 8 12.3636ZM8 10.9091C8.8 10.9091 9.48485 10.6242 10.0545 10.0545C10.6242 9.48485 10.9091 8.8 10.9091 8C10.9091 7.2 10.6242 6.51515 10.0545 5.94546C9.48485 5.37576 8.8 5.09091 8 5.09091C7.2 5.09091 6.51515 5.37576 5.94546 5.94546C5.37576 6.51515 5.09091 7.2 5.09091 8C5.09091 8.8 5.37576 9.48485 5.94546 10.0545C6.51515 10.6242 7.2 10.9091 8 10.9091Z"
    fill="currentColor"
  />
</svg>
