<?xml version="1.0" standalone="no"?>
<!DOCTYPE svg PUBLIC "-//W3C//DTD SVG 20010904//EN" "http://www.w3.org/TR/2001/REC-SVG-20010904/DTD/svg10.dtd">
<svg
  version="1.0"
  xmlns="http://www.w3.org/2000/svg"
  width="460.000000pt"
  height="460.000000pt"
  viewBox="0 0 460.000000 460.000000"
  preserveAspectRatio="xMidYMid meet"
>
  <g
    transform="translate(0.000000,460.000000) scale(0.100000,-0.100000)"
    fill="#000000"
    stroke="none"
  >
    <path
      d="M0 2300 l0 -2300 2300 0 2300 0 0 2300 0 2300 -2300 0 -2300 0 0
-2300z m3311 1210 c84 -43 105 -149 50 -246 -59 -102 -188 -216 -365 -323
l-87 -53 23 -25 c71 -77 223 -126 491 -159 59 -7 120 -56 138 -111 27 -83 -8
-217 -111 -423 -81 -162 -110 -241 -110 -295 0 -44 1 -46 23 -39 12 4 63 34
112 67 203 135 324 264 362 383 23 74 7 114 -70 172 -39 30 -57 50 -57 66 0
54 62 61 133 17 122 -78 150 -229 71 -389 -52 -106 -213 -267 -374 -374 -321
-212 -774 -387 -1147 -443 -147 -22 -338 -20 -438 5 -179 43 -300 111 -451
253 l-51 47 -70 -87 c-220 -279 -386 -394 -568 -397 -93 -1 -131 14 -190 73
-94 94 -107 235 -39 413 22 57 93 182 113 198 3 3 32 37 63 76 31 39 62 77 70
85 7 8 46 49 86 91 58 60 72 80 65 93 -5 9 -43 50 -83 91 -89 90 -177 138
-272 149 -75 8 -108 26 -108 60 0 39 43 65 108 65 130 0 253 -66 395 -212 60
-61 70 -68 85 -56 9 7 58 47 108 88 50 41 122 100 159 130 345 279 535 473
612 623 26 52 39 130 29 170 -9 37 -63 53 -124 37 -113 -28 -253 -121 -393
-260 -104 -104 -167 -187 -230 -307 -33 -63 -58 -80 -96 -66 -30 11 -42 35
-43 82 -1 152 312 495 570 624 214 107 385 80 452 -70 17 -39 20 -59 14 -119
-7 -92 -68 -271 -170 -503 -25 -58 -44 -106 -42 -108 1 -2 34 7 72 19 38 12
95 22 127 22 54 1 61 -2 88 -32 34 -37 39 -98 15 -157 -8 -19 -13 -35 -10 -35
3 0 29 20 57 44 190 160 330 189 377 76 23 -55 4 -112 -112 -337 -104 -203
-158 -331 -158 -377 0 -12 -5 -38 -11 -59 -18 -68 -89 -70 -129 -5 -23 38 -28
141 -9 199 33 103 150 334 236 465 13 21 13 24 0 24 -22 0 -63 -34 -157 -129
-131 -134 -271 -325 -348 -477 -52 -103 -107 -130 -157 -79 -58 57 -10 234
138 501 62 112 127 237 127 245 0 7 -97 -12 -170 -34 l-45 -13 -113 -225 c-62
-123 -142 -279 -177 -347 -36 -67 -65 -127 -65 -133 0 -6 28 -38 63 -71 109
-104 225 -174 347 -210 158 -47 409 -30 680 44 41 11 89 24 105 28 117 31 495
187 495 205 0 3 -9 19 -21 34 -29 40 -34 104 -15 181 9 34 14 65 12 67 -2 2
-44 -30 -92 -72 -136 -117 -224 -153 -308 -125 -48 15 -91 75 -106 143 -35
169 129 439 370 608 32 23 57 46 55 50 -3 4 -17 10 -32 14 -64 15 -198 91
-244 137 l-49 49 -45 -16 c-67 -22 -111 -20 -129 8 -26 39 -10 65 63 102 l66
33 11 82 c39 289 363 557 555 460z m384 -295 c55 -24 107 -76 130 -132 18 -42
20 -127 3 -174 -28 -85 -131 -164 -178 -139 -50 27 -42 81 21 146 54 55 63
106 25 151 -30 36 -100 63 -161 63 -72 0 -111 53 -67 93 35 32 145 28 227 -8z
m339 -1137 c-4 -7 -14 -21 -23 -31 -13 -16 -13 -19 -1 -28 11 -6 21 -2 36 15
27 30 39 23 17 -11 -12 -18 -13 -27 -4 -36 9 -9 17 -5 35 18 13 17 27 27 31
23 12 -11 -44 -79 -58 -72 -7 4 -31 21 -54 37 l-42 30 26 33 c24 32 52 48 37
22z m-104 -143 c0 -3 -12 -16 -26 -29 -20 -16 -25 -28 -20 -44 13 -41 78 -40
91 1 6 19 8 20 12 4 13 -49 -69 -76 -107 -35 -25 28 -25 48 1 82 18 23 49 36
49 21z m-116 -175 c19 -25 32 -48 28 -52 -4 -4 -26 -2 -50 4 -49 12 -62 6 -39
-20 18 -19 23 -42 10 -42 -14 1 -84 98 -75 104 5 3 32 -1 60 -9 56 -14 64 -9
32 20 -20 18 -28 50 -11 43 5 -1 25 -23 45 -48z m-204 -77 c0 -4 -12 -17 -27
-29 -21 -17 -25 -25 -17 -34 9 -9 18 -8 38 5 14 10 26 13 26 7 0 -5 -9 -16
-21 -23 -13 -9 -18 -20 -14 -31 7 -17 9 -17 35 2 31 22 40 25 40 11 0 -8 -60
-51 -72 -51 -9 0 -70 101 -64 107 10 11 61 42 69 42 4 1 7 -2 7 -6z m-137
-146 c28 -55 32 -67 20 -67 -10 0 -63 93 -63 109 0 24 16 8 43 -42z m-113 -31
c6 -8 10 -24 8 -35 -2 -11 6 -27 17 -35 23 -17 4 -22 -25 -6 -29 15 -51 2 -44
-26 11 -42 -10 -26 -36 29 -13 28 -26 54 -27 57 -5 9 40 27 68 29 15 0 32 -5
39 -13z m-173 -59 c-44 -28 -50 -35 -43 -45 5 -8 15 -8 33 -1 14 5 29 7 32 3
3 -4 1 -9 -5 -11 -27 -10 -43 -29 -35 -41 7 -12 14 -11 39 2 17 9 33 12 36 8
5 -8 -55 -42 -74 -42 -13 0 -63 104 -52 108 5 1 18 9 28 17 10 8 28 14 39 14
19 0 19 -1 2 -12z m-123 -63 c25 -24 19 -53 -14 -72 -21 -11 -29 -23 -26 -34
9 -36 -15 -16 -34 28 -26 60 -25 68 8 81 39 15 49 15 66 -3z m-190 -81 c-5
-35 -3 -40 27 -57 19 -11 28 -21 21 -24 -7 -2 -23 3 -36 12 -26 16 -36 12 -36
-14 0 -10 -7 -24 -17 -31 -17 -15 -17 -15 2 56 5 15 -2 25 -27 40 -27 16 -30
20 -14 23 10 2 23 -1 29 -7 17 -17 27 -13 37 14 14 37 21 30 14 -12z m-1094
-36 c0 -8 -7 -28 -15 -44 -19 -38 -10 -63 21 -63 19 0 28 9 40 40 9 22 20 40
25 40 13 0 10 -21 -9 -60 -20 -41 -62 -52 -93 -24 -23 21 -23 27 -3 81 16 42
34 57 34 30z m930 4 c0 -5 -13 -12 -30 -16 -21 -5 -30 -13 -30 -26 0 -22 0
-22 34 -9 14 5 28 5 31 1 3 -5 -9 -14 -25 -20 -52 -18 -35 -47 19 -31 23 6 31
6 29 -2 -2 -6 -22 -16 -45 -23 l-40 -12 -17 52 c-21 69 -21 70 17 83 42 13 57
14 57 3z m-683 -78 c3 -8 -6 -10 -31 -6 -46 7 -47 -9 -1 -36 41 -24 45 -47 10
-63 -19 -8 -31 -8 -50 0 -36 16 -31 33 5 19 22 -8 33 -8 41 0 9 9 3 17 -25 33
-38 23 -44 38 -24 58 16 16 70 12 75 -5z m378 4 c14 -11 17 -21 12 -47 -4 -19
-2 -38 4 -46 9 -11 8 -14 -4 -14 -8 0 -20 7 -27 15 -18 21 -40 19 -40 -4 0
-11 -4 -23 -10 -26 -10 -6 -16 14 -23 82 -5 45 -8 42 59 52 5 0 18 -5 29 -12z
m-190 -7 c4 -6 -8 -10 -29 -10 -29 0 -36 -4 -36 -20 0 -16 7 -20 30 -20 17 0
30 -4 30 -10 0 -5 -13 -10 -30 -10 -20 0 -30 -5 -30 -15 0 -10 11 -15 35 -15
19 0 35 -4 35 -10 0 -5 -20 -10 -45 -10 l-45 0 0 65 0 65 39 0 c22 0 43 -4 46
-10z"
    />
    <path
      d="M3175 3389 c-43 -13 -141 -89 -188 -146 -53 -65 -114 -203 -89 -203
12 0 177 114 250 173 72 59 135 138 130 164 -4 21 -56 27 -103 12z"
    />
    <path
      d="M1693 2600 c-46 -44 -83 -81 -83 -83 0 -2 25 1 56 7 l56 10 34 69
c19 38 34 71 34 73 0 13 -24 -6 -97 -76z"
    />
    <path
      d="M3295 2566 c-64 -30 -200 -131 -245 -182 -88 -100 -124 -153 -170
-243 -38 -77 -53 -177 -27 -186 31 -12 104 40 228 164 220 218 359 388 359
437 0 41 -69 46 -145 10z"
    />
    <path
      d="M1560 2376 c-41 -12 -93 -32 -115 -43 -48 -25 -190 -131 -224 -167
-23 -25 -23 -25 -5 -49 38 -49 187 -222 193 -225 7 -2 89 162 200 401 28 61
45 107 38 106 -7 0 -46 -10 -87 -23z"
    />
    <path
      d="M1038 1992 c-212 -221 -338 -432 -338 -569 0 -50 14 -92 38 -109 29
-22 115 -17 178 11 119 53 261 194 389 387 l38 58 -89 102 c-49 57 -99 114
-111 128 -13 14 -23 28 -23 31 0 4 -6 9 -14 12 -8 3 -36 -18 -68 -51z"
    />
    <path
      d="M3291 1491 c-10 -7 -11 -13 -1 -30 10 -21 13 -21 33 -8 12 8 22 21
22 28 0 16 -34 23 -54 10z"
    />
    <path
      d="M3008 1370 c-21 -13 -12 -50 12 -50 23 0 42 24 34 44 -7 18 -21 20
-46 6z"
    />
    <path
      d="M2347 1183 c-4 -3 -7 -17 -7 -30 0 -21 4 -23 23 -18 34 11 42 22 27
40 -13 16 -32 20 -43 8z"
    />
  </g>
</svg>
