<svg width="24" height="25" viewBox="0 0 24 25" fill="none" xmlns="http://www.w3.org/2000/svg">
<g clip-path="url(#clip0_16_292)">
<path d="M15.282 2.27464C15.4645 2.50095 15.5575 2.80639 15.7427 3.41651L19.8032 16.7545C18.2782 15.9627 16.6412 15.4085 14.9488 15.1111L12.3055 6.17745C12.2846 6.10603 12.2411 6.04332 12.1815 5.99873C12.122 5.95414 12.0496 5.93008 11.9752 5.93016C11.9008 5.93025 11.8284 5.95447 11.769 5.9992C11.7095 6.04392 11.6662 6.10674 11.6455 6.1782L9.03377 15.1066C7.33407 15.403 5.68981 15.9581 4.1582 16.7524L8.23783 3.4137C8.42458 2.80432 8.51758 2.49945 8.69983 2.27314C8.86079 2.07379 9.07013 1.91899 9.30789 1.82351C9.57658 1.7157 9.89589 1.7157 10.5332 1.7157H13.4475C14.0854 1.7157 14.4047 1.7157 14.6743 1.82426C14.9121 1.91998 15.1212 2.07504 15.282 2.27464Z" fill="white"/>
<path d="M15.7676 17.3888C15.0982 17.9617 13.7621 18.352 12.2233 18.352C10.3352 18.352 8.75174 17.7638 8.33193 16.9728C8.18193 17.4262 8.14818 17.9448 8.14818 18.2767C8.14818 18.2767 8.04937 19.9032 9.18093 21.0348C9.18091 20.8951 9.2084 20.7568 9.26184 20.6278C9.31528 20.4988 9.39362 20.3815 9.49238 20.2828C9.59114 20.184 9.70839 20.1057 9.83743 20.0523C9.96647 19.9989 10.1048 19.9714 10.2444 19.9715C11.2513 19.9715 11.2507 20.8495 11.25 21.563V21.626C11.25 22.7084 11.9113 23.6358 12.8518 24.0269C12.7067 23.7292 12.6316 23.4022 12.6321 23.071C12.6321 22.0383 13.2377 21.6545 13.9423 21.2077C14.5027 20.8525 15.1252 20.4577 15.5537 19.666C15.785 19.2395 15.9059 18.7619 15.9052 18.2767C15.9054 17.9754 15.8589 17.6759 15.7676 17.3888Z" fill="#FF5D01"/>
<path d="M15.7676 17.3888C15.0982 17.9617 13.7621 18.352 12.2233 18.352C10.3352 18.352 8.75174 17.7638 8.33193 16.9728C8.18193 17.4262 8.14818 17.9448 8.14818 18.2767C8.14818 18.2767 8.04937 19.9032 9.18093 21.0348C9.18091 20.8951 9.2084 20.7568 9.26184 20.6278C9.31528 20.4988 9.39362 20.3815 9.49238 20.2828C9.59114 20.184 9.70839 20.1057 9.83743 20.0523C9.96647 19.9989 10.1048 19.9714 10.2444 19.9715C11.2513 19.9715 11.2507 20.8495 11.25 21.563V21.626C11.25 22.7084 11.9113 23.6358 12.8518 24.0269C12.7067 23.7292 12.6316 23.4022 12.6321 23.071C12.6321 22.0383 13.2377 21.6545 13.9423 21.2077C14.5027 20.8525 15.1252 20.4577 15.5537 19.666C15.785 19.2395 15.9059 18.7619 15.9052 18.2767C15.9054 17.9754 15.8589 17.6759 15.7676 17.3888Z" fill="url(#paint0_linear_16_292)"/>
</g>
<defs>
<linearGradient id="paint0_linear_16_292" x1="18.7815" y1="12.7334" x2="14.8186" y2="21.0295" gradientUnits="userSpaceOnUse">
<stop stop-color="#FF1639"/>
<stop offset="1" stop-color="#FF1639" stop-opacity="0"/>
</linearGradient>
<clipPath id="clip0_16_292">
<rect width="24" height="24" fill="white" transform="translate(0 0.5)"/>
</clipPath>
</defs>
</svg>
