<svg width="24" height="25" viewBox="0 0 24 25" fill="none" xmlns="http://www.w3.org/2000/svg">
<g clip-path="url(#clip0_16_382)">
<path d="M3.27637 19.8642L6.23043 0.961565C6.24812 0.848598 6.30086 0.744044 6.38119 0.662671C6.46152 0.581298 6.56539 0.527219 6.67812 0.508071C6.79085 0.488924 6.90674 0.505676 7.00944 0.555962C7.11213 0.606247 7.19643 0.687525 7.25043 0.788315L10.3056 6.48644L11.5232 4.16781C11.5695 4.07987 11.6389 4.00623 11.724 3.95487C11.8091 3.9035 11.9066 3.87635 12.006 3.87635C12.1054 3.87635 12.2029 3.9035 12.288 3.95487C12.3731 4.00623 12.4425 4.07987 12.4888 4.16781L20.7332 19.8642H3.27637Z" fill="#FFA000"/>
<path d="M13.4818 12.5009L10.3041 6.48364L3.27637 19.8642L13.4818 12.5009Z" fill="#F57C00"/>
<path d="M20.7332 19.8643L18.4706 5.86331C18.4539 5.76461 18.4103 5.67242 18.3447 5.59682C18.2791 5.52122 18.194 5.46513 18.0986 5.43468C18.0033 5.40431 17.9014 5.40074 17.8042 5.42435C17.707 5.44796 17.6181 5.49785 17.5474 5.56856L3.27637 19.8641L11.1729 24.2925C11.4168 24.4286 11.6915 24.5001 11.9707 24.5001C12.25 24.5001 12.5247 24.4286 12.7686 24.2925L20.7332 19.8643Z" fill="#FFCA28"/>
<path d="M18.4707 5.86322C18.4539 5.76452 18.4104 5.67233 18.3448 5.59673C18.2792 5.52113 18.194 5.46504 18.0987 5.43459C18.0033 5.4042 17.9015 5.40059 17.8043 5.42417C17.7071 5.44775 17.6182 5.4976 17.5474 5.56828L14.7148 8.40834L12.4875 4.16784C12.4412 4.07989 12.3718 4.00626 12.2867 3.95489C12.2016 3.90353 12.1041 3.87638 12.0047 3.87638C11.9053 3.87638 11.8078 3.90353 11.7227 3.95489C11.6376 4.00626 11.5682 4.07989 11.5219 4.16784L10.3043 6.48628L7.24916 0.788343C7.19509 0.687414 7.11064 0.606051 7.00777 0.555777C6.9049 0.505503 6.78882 0.488864 6.67597 0.508218C6.5632 0.527566 6.45936 0.581878 6.37914 0.663474C6.29893 0.745069 6.24639 0.849818 6.22897 0.962905L3.27641 19.8642H3.26685L3.27622 19.8751L3.35403 19.9133L17.5433 5.70759C17.614 5.63652 17.703 5.58632 17.8005 5.56252C17.8979 5.53872 18 5.54223 18.0956 5.57267C18.1911 5.60311 18.2764 5.6593 18.3421 5.73507C18.4079 5.81083 18.4514 5.90325 18.468 6.00215L20.7115 19.8777L20.7332 19.864L18.4707 5.86322ZM3.30228 19.8383L6.23028 1.09659C6.24768 0.983445 6.30023 0.878635 6.38048 0.797C6.46074 0.715365 6.56464 0.661041 6.67747 0.641718C6.79034 0.62238 6.90644 0.639047 7.00931 0.689356C7.11218 0.739665 7.19662 0.821067 7.25066 0.92203L10.3054 6.62015L11.5232 4.30153C11.5695 4.21358 11.639 4.13995 11.7241 4.08858C11.8091 4.03722 11.9066 4.01007 12.006 4.01007C12.1054 4.01007 12.2029 4.03722 12.288 4.08858C12.3731 4.13995 12.4425 4.21358 12.4888 4.30153L14.671 8.45184L3.30191 19.8383H3.30228Z" fill="white" fill-opacity="0.2"/>
<path opacity="0.2" d="M12.7684 24.1587C12.5246 24.2948 12.2499 24.3663 11.9706 24.3663C11.6913 24.3663 11.4167 24.2948 11.1728 24.1587L3.295 19.7431L3.27588 19.8644L11.1724 24.2913C11.4163 24.4274 11.691 24.4989 11.9703 24.4989C12.2495 24.4989 12.5242 24.4274 12.7681 24.2913L20.7331 19.8644L20.7124 19.7388L12.7681 24.1591L12.7684 24.1587Z" fill="#A52714"/>
</g>
<defs>
<clipPath id="clip0_16_382">
<rect width="24" height="24" fill="white" transform="translate(0 0.5)"/>
</clipPath>
</defs>
</svg>
