<svg width="16" height="16" viewBox="0 0 16 16" fill="none" xmlns="http://www.w3.org/2000/svg">
<g clip-path="url(#clip0_34_243)">
<path d="M0 0H16V16H0V0Z" fill="#F7DF1E"/>
<path d="M4.20709 13.3707L5.43147 12.6297C5.66772 13.0485 5.88259 13.4029 6.39803 13.4029C6.89209 13.4029 7.20366 13.2096 7.20366 12.4579V7.34552H8.70722V12.4791C8.70722 14.0365 7.79434 14.7453 6.46247 14.7453C5.25966 14.7453 4.56147 14.1224 4.20703 13.3706M9.52391 13.2096L10.7482 12.5008C11.0705 13.0271 11.4893 13.4137 12.2303 13.4137C12.8534 13.4137 13.2507 13.1022 13.2507 12.6726C13.2507 12.1571 12.8425 11.9745 12.1552 11.6738L11.7793 11.5126C10.6945 11.0509 9.97497 10.4709 9.97497 9.24652C9.97497 8.11877 10.8342 7.25952 12.1767 7.25952C13.1326 7.25952 13.82 7.59252 14.314 8.46246L13.1432 9.21433C12.8854 8.75252 12.6063 8.56996 12.1767 8.56996C11.7363 8.56996 11.457 8.84921 11.457 9.21433C11.457 9.6654 11.7363 9.84808 12.3807 10.1273L12.7565 10.2884C14.0347 10.8362 14.7542 11.3946 14.7542 12.6511C14.7542 14.0045 13.691 14.7455 12.2625 14.7455C10.8663 14.7455 9.96416 14.0796 9.52384 13.2096" fill="black"/>
</g>
<defs>
<clipPath id="clip0_34_243">
<rect width="16" height="16" fill="white"/>
</clipPath>
</defs>
</svg>
