<svg width="24" height="24" viewBox="0 0 24 24" fill="none" xmlns="http://www.w3.org/2000/svg">
<g clip-path="url(#clip0_16_747)">
<path fill-rule="evenodd" clip-rule="evenodd" d="M8.50629 17.6988C9.52287 18.3233 10.7193 18.6835 12 18.6835C15.6912 18.6835 18.6835 15.6912 18.6835 12C18.6835 8.30874 15.6912 5.31641 12 5.31641C8.30874 5.31641 5.31641 8.30874 5.31641 12V21.4177H8.50629V17.6988ZM15.4936 12C15.4936 13.9295 13.9295 15.4936 12 15.4936C10.0704 15.4936 8.50629 13.9295 8.50629 12C8.50629 10.0704 10.0704 8.50629 12 8.50629C13.9295 8.50629 15.4936 10.0704 15.4936 12Z" fill="#3B5BDB"/>
<path fill-rule="evenodd" clip-rule="evenodd" d="M12 20.9619C16.9496 20.9619 20.9619 16.9496 20.9619 12C20.9619 7.05041 16.9496 3.03797 12 3.03797C7.05041 3.03797 3.03797 7.05041 3.03797 12C3.03797 16.9496 7.05041 20.9619 12 20.9619ZM12 24C18.6274 24 24 18.6274 24 12C24 5.37259 18.6274 0 12 0C5.37259 0 0 5.37259 0 12C0 18.6274 5.37259 24 12 24Z" fill="#5C7CFA"/>
</g>
<defs>
<clipPath id="clip0_16_747">
<rect width="24" height="24" fill="white"/>
</clipPath>
</defs>
</svg>
