<svg width="16" height="16" viewBox="0 0 16 16" fill="none" xmlns="http://www.w3.org/2000/svg">
<path d="M1.43329 11.1866H2.47995C2.50256 11.1868 2.52449 11.1788 2.54165 11.1641C2.55882 11.1494 2.57006 11.129 2.57329 11.1066L2.80662 9.89325H3.61995C3.96041 9.90156 4.30007 9.85657 4.62662 9.75992C4.89107 9.67222 5.13253 9.52643 5.33329 9.33325C5.51327 9.1711 5.66432 8.97947 5.77995 8.76659C5.89441 8.55832 5.9754 8.33335 6.01995 8.09992C6.09078 7.85531 6.10295 7.59744 6.05546 7.34724C6.00797 7.09704 5.90216 6.86157 5.74662 6.65992C5.56641 6.4768 5.34829 6.33535 5.10758 6.24552C4.86687 6.15569 4.60941 6.11964 4.35329 6.13992H2.35329C2.3293 6.141 2.30637 6.15015 2.28822 6.16587C2.27008 6.1816 2.25777 6.20299 2.25329 6.22659L1.33329 11.0666C1.32364 11.0947 1.32364 11.1252 1.33329 11.1533C1.34601 11.1665 1.36176 11.1764 1.37918 11.1823C1.3966 11.1881 1.41517 11.1895 1.43329 11.1866ZM3.33329 7.07992H3.99995C4.12679 7.06288 4.25575 7.0712 4.37934 7.10439C4.50294 7.13757 4.61871 7.19497 4.71995 7.27325C4.83329 7.39325 4.85329 7.61992 4.79329 7.93992C4.76044 8.22638 4.62555 8.49144 4.41329 8.68659C4.14925 8.85377 3.83818 8.93095 3.52662 8.90659H2.99329L3.33329 7.07992ZM9.86662 6.44659C9.50571 6.18125 9.05882 6.06002 8.61329 6.10659H7.81995L8.03996 4.93325C8.04646 4.91973 8.04983 4.90492 8.04983 4.88992C8.04983 4.87492 8.04646 4.86011 8.03996 4.84659C8.01628 4.83792 7.9903 4.83792 7.96662 4.84659H6.91996C6.89735 4.84636 6.87542 4.85434 6.85826 4.86905C6.84109 4.88377 6.82985 4.90421 6.82662 4.92659L5.90662 9.77325C5.90019 9.78561 5.89684 9.79933 5.89684 9.81325C5.89684 9.82718 5.90019 9.8409 5.90662 9.85325C5.91448 9.86556 5.92533 9.87568 5.93815 9.88267C5.95097 9.88967 5.96535 9.89331 5.97995 9.89325H7.00662C7.03026 9.89331 7.05304 9.8844 7.07037 9.86832C7.08769 9.85223 7.09827 9.83017 7.09995 9.80659L7.61329 7.09325H8.35329C8.65329 7.09325 8.75995 7.15992 8.79329 7.19992C8.82079 7.26535 8.83496 7.33561 8.83496 7.40659C8.83496 7.47756 8.82079 7.54782 8.79329 7.61325L8.38662 9.77325C8.38019 9.78561 8.37684 9.79933 8.37684 9.81325C8.37684 9.82718 8.38019 9.8409 8.38662 9.85325C8.3949 9.86516 8.40583 9.87497 8.41856 9.88192C8.43129 9.88886 8.44546 9.89274 8.45995 9.89325H9.49996C9.52395 9.89217 9.54687 9.88303 9.56502 9.8673C9.58317 9.85157 9.59548 9.83018 9.59995 9.80659L10.0266 7.53992C10.0955 7.35917 10.1169 7.16381 10.0889 6.97243C10.0609 6.78106 9.98437 6.60003 9.86662 6.44659ZM12.88 6.10659H10.7933C10.781 6.10568 10.7687 6.10721 10.757 6.11108C10.7454 6.11494 10.7346 6.12108 10.7253 6.12914C10.716 6.13719 10.7084 6.147 10.7029 6.158C10.6974 6.16901 10.6941 6.18099 10.6933 6.19325L9.71996 11.0666C9.71389 11.0802 9.71076 11.095 9.71076 11.1099C9.71076 11.1249 9.71389 11.1396 9.71996 11.1533C9.72891 11.1639 9.74015 11.1725 9.75284 11.1782C9.76553 11.184 9.77935 11.1869 9.79329 11.1866H10.88C10.9037 11.1885 10.9273 11.1813 10.9458 11.1664C10.9644 11.1516 10.9766 11.1302 10.98 11.1066L11.2266 9.89325H12.0733C12.4247 9.90078 12.7752 9.85584 13.1133 9.75992C13.4044 9.67895 13.6733 9.53307 13.9 9.33325C14.0861 9.17183 14.2439 8.98028 14.3666 8.76659C14.4824 8.55827 14.5656 8.33344 14.6133 8.09992C14.686 7.85508 14.6984 7.59632 14.6497 7.34562C14.601 7.09492 14.4924 6.85969 14.3333 6.65992C14.1451 6.46864 13.9178 6.32019 13.667 6.2247C13.4162 6.12921 13.1477 6.08893 12.88 6.10659ZM13.2933 7.95325C13.2534 8.24193 13.1115 8.50679 12.8933 8.69992C12.6197 8.86786 12.3 8.94487 11.98 8.91992H11.4466L11.8066 7.07992H12.4733C12.7398 7.04726 13.0088 7.1163 13.2266 7.27325C13.3333 7.39325 13.3333 7.61992 13.2933 7.95325Z" fill="black"/>
</svg>
