<svg width="24" height="25" viewBox="0 0 24 25" fill="none" xmlns="http://www.w3.org/2000/svg">
<path d="M17.6633 15.3942L18.3567 13.641H20.3585L19.4085 10.9814L20.5967 7.97656L24 17.0126H21.4902L20.9086 15.3942H17.6633Z" fill="#3D3D3D"/>
<path d="M15.5223 17.0126L19.1656 7.97656L16.7502 7.97657L14.258 13.8159L12.4858 7.97659H10.6292L8.7263 13.8159L7.38434 11.155L6.16992 14.8964L7.40292 17.0126H9.77994L11.4995 11.776L13.139 17.0126H15.5223Z" fill="#5A0FC8"/>
<path d="M2.29274 13.9107H3.78048C4.23114 13.9107 4.63244 13.8604 4.98438 13.7598L5.36913 12.5745L6.44444 9.26159C6.36251 9.13172 6.26897 9.00894 6.16382 8.89324C5.61171 8.28211 4.80392 7.97656 3.74043 7.97656H0V17.0126H2.29274V13.9107ZM4.26199 10.0554C4.47765 10.2724 4.58546 10.5629 4.58546 10.9268C4.58546 11.2934 4.49063 11.5842 4.30098 11.7992C4.09307 12.038 3.71024 12.1574 3.15251 12.1574H2.29274V9.72981H3.15883C3.67863 9.72981 4.04635 9.83834 4.26199 10.0554Z" fill="#3D3D3D"/>
</svg>
