<svg width="24" height="24" viewBox="0 0 24 24" fill="none" xmlns="http://www.w3.org/2000/svg">
<path d="M12 14.1375C13.1806 14.1375 14.1375 13.1806 14.1375 12C14.1375 10.8195 13.1806 9.86255 12 9.86255C10.8195 9.86255 9.86255 10.8195 9.86255 12C9.86255 13.1806 10.8195 14.1375 12 14.1375Z" fill="#61DAFB"/>
<path d="M20.1187 8.47505C19.7062 8.32505 19.275 8.17505 18.8249 8.0438C18.9375 7.5938 19.0312 7.1438 19.1062 6.71255C19.5 4.23755 19.0687 2.4938 17.8687 1.8188C17.5124 1.61255 17.1187 1.5188 16.6687 1.5188C15.3562 1.5188 13.6874 2.4938 12 4.12505C10.3125 2.4938 8.6437 1.5188 7.3312 1.5188C6.8812 1.5188 6.48745 1.61255 6.1312 1.8188C4.9312 2.51255 4.49995 4.2563 4.8937 6.71255C4.9687 7.1438 5.06245 7.5938 5.17495 8.0438C4.72495 8.17505 4.2937 8.3063 3.8812 8.47505C1.53745 9.37505 0.262451 10.6125 0.262451 12C0.262451 13.3876 1.5562 14.6251 3.8812 15.5251C4.2937 15.6751 4.72495 15.8251 5.17495 15.9563C5.06245 16.4063 4.9687 16.8563 4.8937 17.2875C4.49995 19.7626 4.9312 21.5063 6.1312 22.1813C6.48745 22.3876 6.8812 22.4813 7.3312 22.4813C8.66245 22.4813 10.3312 21.5063 12 19.8751C13.6874 21.5063 15.3562 22.4813 16.6687 22.4813C17.1187 22.4813 17.5124 22.3876 17.8687 22.1813C19.0687 21.4876 19.5 19.7438 19.1062 17.2875C19.0312 16.8563 18.9375 16.4063 18.8249 15.9563C19.275 15.8251 19.7062 15.6938 20.1187 15.5251C22.4625 14.6251 23.7374 13.3876 23.7374 12C23.7374 10.6125 22.4625 9.37505 20.1187 8.47505ZM17.3437 2.7563C18.1124 3.2063 18.375 4.5938 18.0562 6.56255C18 6.9563 17.9062 7.3688 17.7937 7.80005C16.8187 7.57505 15.7874 7.42505 14.7 7.3313C14.0625 6.4313 13.4062 5.62505 12.7499 4.8938C14.1375 3.52505 15.5437 2.58755 16.6875 2.58755C16.9312 2.58755 17.1562 2.6438 17.3437 2.7563ZM15.2437 13.8751C14.9062 14.475 14.5124 15.0751 14.0999 15.675C13.4062 15.7313 12.7125 15.7501 12 15.7501C11.2687 15.7501 10.575 15.7313 9.89995 15.675C9.48745 15.0751 9.11245 14.475 8.77495 13.8751C8.4187 13.2563 8.0812 12.6188 7.7812 12C8.0812 11.3813 8.4187 10.7438 8.77495 10.125C9.11245 9.52505 9.5062 8.92505 9.9187 8.32505C10.6125 8.2688 11.3062 8.25005 12.0187 8.25005C12.7499 8.25005 13.4437 8.2688 14.1187 8.32505C14.5312 8.92505 14.9062 9.52505 15.2437 10.125C15.5999 10.7438 15.9374 11.3813 16.2374 12C15.9187 12.6188 15.5999 13.2375 15.2437 13.8751ZM16.7999 13.2563C17.0812 13.9125 17.3062 14.55 17.5124 15.1876C16.875 15.3376 16.1999 15.4501 15.4874 15.5438C15.7124 15.1876 15.9562 14.8126 16.1624 14.4188C16.3874 14.0251 16.5937 13.6313 16.7999 13.2563ZM12 18.3376C11.5499 17.8501 11.1187 17.3251 10.7062 16.7813C11.1374 16.8001 11.5687 16.8188 12 16.8188C12.4312 16.8188 12.8625 16.8001 13.2937 16.7813C12.8812 17.3251 12.45 17.8501 12 18.3376ZM8.51245 15.5251C7.79995 15.4313 7.12495 15.3188 6.48745 15.1688C6.6937 14.5501 6.9187 13.8938 7.19995 13.2375C7.4062 13.6125 7.61245 14.0063 7.83745 14.3813C8.06245 14.7938 8.28745 15.1501 8.51245 15.5251ZM7.19995 10.7438C6.9187 10.0875 6.6937 9.45005 6.48745 8.81255C7.12495 8.66255 7.79995 8.55005 8.51245 8.4563C8.28745 8.81255 8.0437 9.18755 7.83745 9.5813C7.61245 9.97505 7.4062 10.3688 7.19995 10.7438ZM12 5.66255C12.45 6.15005 12.8812 6.67505 13.2937 7.2188C12.8625 7.20005 12.4312 7.1813 12 7.1813C11.5687 7.1813 11.1374 7.20005 10.7062 7.2188C11.1187 6.67505 11.5499 6.15005 12 5.66255ZM16.1624 9.60005L15.4874 8.47505C16.1999 8.5688 16.875 8.6813 17.5124 8.8313C17.3062 9.45005 17.0812 10.1063 16.7999 10.7626C16.5937 10.3688 16.3874 9.97505 16.1624 9.60005ZM5.9437 6.56255C5.62495 4.5938 5.88745 3.2063 6.6562 2.7563C6.8437 2.6438 7.0687 2.58755 7.31245 2.58755C8.43745 2.58755 9.8437 3.5063 11.25 4.8938C10.5937 5.6063 9.93745 6.4313 9.29995 7.3313C8.21245 7.42505 7.1812 7.5938 6.2062 7.80005C6.0937 7.3688 6.0187 6.9563 5.9437 6.56255ZM1.31245 12C1.31245 11.1188 2.3812 10.1813 4.2562 9.48755C4.6312 9.33755 5.0437 9.2063 5.4562 9.0938C5.7562 10.0313 6.1312 11.025 6.5812 12.0188C6.1312 13.0125 5.73745 13.9875 5.4562 14.925C2.8687 14.175 1.31245 13.05 1.31245 12ZM6.6562 21.2438C5.88745 20.7938 5.62495 19.4063 5.9437 17.4376C5.99995 17.0438 6.0937 16.6313 6.2062 16.2001C7.1812 16.4251 8.21245 16.5751 9.29995 16.6688C9.93745 17.5688 10.5937 18.3751 11.25 19.1063C9.86245 20.4751 8.4562 21.4125 7.31245 21.4125C7.0687 21.4125 6.8437 21.3563 6.6562 21.2438ZM18.0562 17.4376C18.375 19.4063 18.1124 20.7938 17.3437 21.2438C17.1562 21.3563 16.9312 21.4125 16.6875 21.4125C15.5624 21.4125 14.1562 20.4938 12.7499 19.1063C13.4062 18.3938 14.0625 17.5688 14.7 16.6688C15.7874 16.5751 16.8187 16.4063 17.7937 16.2001C17.9062 16.6313 17.9812 17.0438 18.0562 17.4376ZM19.7437 14.5126C19.3687 14.6625 18.9562 14.7938 18.5437 14.9063C18.2437 13.9688 17.8687 12.975 17.4187 11.9813C17.8687 10.9875 18.2624 10.0126 18.5437 9.07505C21.1312 9.82505 22.6874 10.9501 22.6874 12C22.6874 12.8813 21.5999 13.8188 19.7437 14.5126Z" fill="#61DAFB"/>
</svg>
