<svg width="24" height="18" viewBox="0 0 24 18" fill="none" xmlns="http://www.w3.org/2000/svg">
<g clip-path="url(#clip0_16_563)">
<path d="M20.6513 10.3607C19.8164 10.365 19.0906 10.5661 18.483 10.8634C18.26 10.4218 18.0371 10.0285 17.9978 9.73991C17.954 9.40334 17.9016 9.19784 17.954 8.79566C18.0065 8.39347 18.2426 7.82075 18.2382 7.77706C18.2338 7.73337 18.1857 7.52787 17.7048 7.52356C17.224 7.51925 16.8087 7.61534 16.7606 7.74209C16.7125 7.86884 16.6207 8.15741 16.5595 8.45459C16.4764 8.89184 15.5978 10.4524 15.0951 11.2699C14.9333 10.9509 14.7934 10.671 14.7628 10.4481C14.7191 10.1115 14.6666 9.90603 14.7191 9.50384C14.7716 9.10166 15.0076 8.52903 15.0032 8.48525C14.9988 8.44156 14.9507 8.23606 14.4699 8.23175C13.989 8.22734 13.5736 8.32353 13.5256 8.45028C13.4775 8.57712 13.425 8.87431 13.3245 9.16287C13.224 9.45144 12.0568 12.0569 11.7508 12.7301C11.6271 13.0025 11.4974 13.2722 11.3617 13.5388C11.3617 13.5388 11.3573 13.552 11.3442 13.5738C11.3015 13.6574 11.2579 13.7405 11.2131 13.823V13.8273C11.1475 13.9454 11.0775 14.0547 11.0426 14.0547C11.0163 14.0547 10.9682 13.7399 11.0513 13.3115C11.2261 12.4066 11.6415 10.999 11.6371 10.9509C11.6371 10.9246 11.7158 10.6798 11.3661 10.553C11.025 10.4262 10.9027 10.6361 10.872 10.6361C10.8414 10.6361 10.8195 10.7104 10.8195 10.7104C10.8195 10.7104 11.2 9.1279 10.0939 9.1279C9.40326 9.1279 8.4502 9.88419 7.97808 10.5661C7.44137 10.8582 6.90512 11.1511 6.36933 11.4448C6.11151 11.5891 5.8448 11.7334 5.59561 11.8689C5.57808 11.8514 5.56064 11.8295 5.54311 11.8121C4.20539 10.3826 1.73114 9.37269 1.83604 7.45362C1.87542 6.75416 2.1158 4.91806 6.58795 2.68859C10.2688 0.874343 13.1978 1.37703 13.7049 2.49181C14.4305 4.08312 12.1355 7.03831 8.33217 7.46666C6.88083 7.62847 6.12014 7.06887 5.92786 6.85906C5.72676 6.64044 5.69611 6.62731 5.62176 6.67109C5.49942 6.73672 5.57808 6.93341 5.62176 7.04703C5.73548 7.34422 6.2032 7.86884 6.99445 8.12684C7.69392 8.35409 9.39445 8.48094 11.4535 7.68528C13.7573 6.79344 15.5584 4.31478 15.0295 2.23831C14.5005 0.131187 11.0032 -0.563875 7.69392 0.612031C5.72676 1.31159 3.59339 2.41316 2.05898 3.84706C0.236014 5.55191 -0.0525488 7.03391 0.0654825 7.65472C0.489607 9.85794 3.52786 11.2918 4.74314 12.3541C4.68192 12.3891 4.62501 12.4197 4.57701 12.446C3.96933 12.7476 1.65239 13.9585 1.07536 15.2394C0.41967 16.6907 1.18036 17.7312 1.68304 17.871C3.2437 18.3039 4.84804 17.5257 5.70923 16.2404C6.57042 14.9552 6.46551 13.2852 6.06773 12.5202C6.06333 12.5115 6.05901 12.5027 6.0502 12.494C6.20761 12.4022 6.36933 12.306 6.52673 12.2142C6.81603 12.0432 7.10901 11.8785 7.40545 11.7202C7.25676 12.1268 7.14745 12.612 7.09505 13.3115C7.02942 14.1334 7.36598 15.2 7.80754 15.6196C8.00433 15.8034 8.23598 15.8077 8.38467 15.8077C8.90048 15.8077 9.13223 15.3792 9.39014 14.8722C9.70486 14.2514 9.98901 13.5301 9.98901 13.5301C9.98901 13.5301 9.63492 15.4798 10.5967 15.4798C10.9464 15.4798 11.3005 15.0252 11.4579 14.7935V14.7978C11.4579 14.7978 11.4666 14.7847 11.4841 14.7541C11.5191 14.6973 11.541 14.6622 11.541 14.6622V14.6536C11.6808 14.4087 11.9956 13.8536 12.4634 12.9312C13.0666 11.7421 13.6481 10.2558 13.6481 10.2558C13.6481 10.2558 13.7006 10.6186 13.8797 11.2219C13.9847 11.576 14.2032 11.9651 14.3781 12.341C14.2382 12.5378 14.1508 12.647 14.1508 12.647L14.1552 12.6514C14.0415 12.8 13.9191 12.9617 13.7835 13.1192C13.307 13.6874 12.7388 14.3389 12.66 14.5268C12.5682 14.7497 12.5901 14.9115 12.765 15.0427C12.8918 15.1389 13.119 15.1519 13.3508 15.1389C13.7792 15.1082 14.0808 15.0033 14.2294 14.9378C14.4612 14.8547 14.7322 14.7279 14.9857 14.5399C15.4535 14.1945 15.7376 13.7006 15.7114 13.0493C15.6983 12.6908 15.5803 12.3323 15.436 11.9956C15.4798 11.9345 15.519 11.8733 15.5628 11.8121C16.3016 10.7322 16.8743 9.54753 16.8743 9.54753C16.8743 9.54753 16.9268 9.91034 17.106 10.5137C17.1934 10.8197 17.3727 11.152 17.53 11.4754C16.8349 12.0394 16.4065 12.6951 16.2535 13.1235C15.9781 13.9192 16.1923 14.2776 16.5989 14.3607C16.7824 14.4 17.0447 14.3126 17.2371 14.2295C17.4819 14.1508 17.7705 14.0154 18.0459 13.8142C18.5137 13.4689 18.9639 12.988 18.9376 12.3367C18.9245 12.0394 18.8459 11.7464 18.7365 11.4623C19.3267 11.2176 20.0874 11.082 21.0578 11.1957C23.1388 11.4404 23.5497 12.7388 23.4709 13.2853C23.3923 13.8317 22.9551 14.129 22.8109 14.2208C22.6665 14.3127 22.6185 14.3432 22.6317 14.4087C22.6491 14.5049 22.719 14.5006 22.8415 14.4831C23.012 14.4525 23.9344 14.0415 23.9737 13.0361C24.0393 11.7508 22.8152 10.3476 20.6513 10.3607ZM4.59886 15.7727C3.90811 16.5246 2.94642 16.8087 2.53111 16.5684C2.08523 16.3104 2.26008 15.2 3.10814 14.4044C3.62395 13.9192 4.28845 13.4688 4.73001 13.1935C4.83051 13.1322 4.9792 13.0449 5.15845 12.9356C5.18901 12.918 5.20654 12.9093 5.20654 12.9093L5.31145 12.8437C5.62176 13.9803 5.32458 14.9815 4.59886 15.7727ZM9.6262 12.3541C9.38573 12.94 8.88305 14.4394 8.57705 14.3563C8.31473 14.2864 8.15292 13.1498 8.52455 12.0263C8.71251 11.4623 9.1103 10.7891 9.34204 10.5268C9.71798 10.1071 10.1333 9.96716 10.2338 10.1378C10.3606 10.3607 9.7748 11.9869 9.6262 12.3541ZM13.7748 14.3388C13.6742 14.3913 13.5781 14.4263 13.5344 14.4C13.5038 14.3825 13.5781 14.3126 13.5781 14.3126C13.5781 14.3126 14.0984 13.7531 14.3038 13.4995C14.4219 13.3509 14.5617 13.176 14.7104 12.9792V13.0361C14.7104 13.705 14.0633 14.1552 13.7747 14.3388M16.9747 13.6088C16.9004 13.5563 16.9135 13.3814 17.1627 12.835C17.2589 12.6207 17.4861 12.2623 17.8753 11.917C17.919 12.0568 17.9496 12.1924 17.9452 12.3192C17.9408 13.1629 17.3376 13.4776 16.9747 13.6088Z" fill="#CD6799"/>
</g>
<defs>
<clipPath id="clip0_16_563">
<rect width="24" height="18" fill="white"/>
</clipPath>
</defs>
</svg>
