<svg width="24" height="25" viewBox="0 0 24 25" fill="none" xmlns="http://www.w3.org/2000/svg">
<g clip-path="url(#clip0_16_373)">
<path d="M12.0007 5.30042C8.80067 5.30042 6.80136 6.89979 6.00073 10.0999C7.20036 8.50029 8.60079 7.90048 10.2004 8.30042C11.1137 8.52804 11.7664 9.19029 12.4892 9.92417C13.6655 11.118 15.0272 12.5 18.0007 12.5C21.2006 12.5 23.2001 10.9005 24.0007 7.69967C22.8007 9.30004 21.4008 9.90017 19.8009 9.50004C18.8878 9.27223 18.2359 8.61017 17.5121 7.87629C16.3365 6.68248 14.9752 5.30042 12.0007 5.30042ZM6.00073 12.5C2.80086 12.5 0.801357 14.0996 0.000732422 17.3004C1.20061 15.7 2.60048 15.0999 4.20036 15.5C5.11367 15.7279 5.76636 16.3899 6.48917 17.1238C7.66554 18.3176 9.02717 19.6997 12.0007 19.6997C15.2006 19.6997 17.2001 18.1003 18.0007 14.9002C16.8007 16.4999 15.4008 17.0997 13.8009 16.6997C12.8878 16.472 12.2359 15.8098 11.5121 15.0759C10.3365 13.8821 8.97523 12.5 6.00073 12.5Z" fill="#38BDF8"/>
</g>
<defs>
<clipPath id="clip0_16_373">
<rect width="24" height="24" fill="white" transform="translate(0 0.5)"/>
</clipPath>
</defs>
</svg>
