<svg width="24" height="24" viewBox="0 0 24 24" fill="none" xmlns="http://www.w3.org/2000/svg">
<g clip-path="url(#clip0_16_686)">
<path d="M4.25073 8.8125H22.9389V22.6256H4.25073V8.8125Z" fill="white"/>
<path d="M0.28125 11.9832V23.7019H23.7188V0.264404H0.28125V11.9832ZM19.1681 11.0457C19.7295 11.1759 20.2397 11.4695 20.6344 11.8894C20.8516 12.1156 21.0405 12.3675 21.1969 12.6394C21.1969 12.6694 20.1844 13.3538 19.5675 13.7363C19.545 13.7513 19.455 13.6538 19.3556 13.5057C19.243 13.3113 19.083 13.1487 18.8905 13.033C18.6981 12.9172 18.4794 12.8522 18.255 12.8438C17.5444 12.795 17.0869 13.1682 17.0906 13.7813C17.0849 13.9339 17.1199 14.0853 17.1919 14.22C17.3475 14.5444 17.6381 14.7375 18.5494 15.1313C20.2275 15.8532 20.9456 16.3294 21.3919 17.0063C21.8906 17.7563 22.0012 18.9675 21.6637 19.8638C21.2887 20.8388 20.37 21.5007 19.0706 21.72C18.4772 21.788 17.8775 21.7817 17.2856 21.7013C16.3784 21.5517 15.5428 21.1162 14.9006 20.4582C14.685 20.22 14.265 19.5994 14.2913 19.5544C14.3596 19.5034 14.4316 19.4576 14.5069 19.4175L15.375 18.9375L16.0481 18.5475L16.1887 18.7557C16.4262 19.0951 16.7282 19.3843 17.0775 19.6069C17.8275 20.0007 18.8512 19.9463 19.3575 19.4907C19.5275 19.3237 19.6335 19.1024 19.6572 18.8653C19.6808 18.6283 19.6205 18.3904 19.4869 18.1932C19.2994 17.9325 18.9244 17.7132 17.8762 17.2557C16.6669 16.7344 16.1456 16.4119 15.6694 15.8982C15.3722 15.5591 15.1527 15.1591 15.0262 14.7263C14.932 14.2317 14.9181 13.7253 14.985 13.2263C15.2344 12.0582 16.11 11.2425 17.3888 11.0007C17.981 10.9275 18.5808 10.9439 19.1681 11.0494V11.0457ZM13.6669 12.0282V12.9882H10.6237V21.6563H8.46563V12.9863H5.415V12.0488C5.40543 11.7255 5.41294 11.4019 5.4375 11.0794C5.4525 11.0625 7.3125 11.0625 9.5625 11.0625H13.6556L13.6669 12.0282Z" fill="#007ACC"/>
</g>
<defs>
<clipPath id="clip0_16_686">
<rect width="24" height="24" fill="white"/>
</clipPath>
</defs>
</svg>
