<svg
  width="16"
  height="16"
  viewBox="0 0 16 16"
  fill="none"
  xmlns="http://www.w3.org/2000/svg"
>
  <path
    d="M8.00004 1.33325C4.32671 1.33325 1.33337 4.32659 1.33337 7.99992C1.33337 11.6733 4.32671 14.6666 8.00004 14.6666C11.6734 14.6666 14.6667 11.6733 14.6667 7.99992C14.6667 4.32659 11.6734 1.33325 8.00004 1.33325ZM2.00671 7.99992C2.00671 7.13325 2.19337 6.30659 2.52671 5.55992L5.38671 13.3933C3.38671 12.4199 2.00671 10.3733 2.00671 7.99992ZM8.00004 13.9933C7.41337 13.9933 6.84671 13.9066 6.30671 13.7466L8.10671 8.51992L9.94671 13.5666C9.96004 13.5933 9.97337 13.6266 9.98671 13.6466C9.36671 13.8733 8.70004 13.9933 8.00004 13.9933ZM8.82671 5.18659C9.18671 5.16659 9.51337 5.12659 9.51337 5.12659C9.83337 5.08659 9.80004 4.61325 9.47337 4.63325C9.47337 4.63325 8.50004 4.70658 7.87337 4.70658C7.28671 4.70658 6.29337 4.63325 6.29337 4.63325C5.97337 4.61992 5.93337 5.11325 6.26004 5.13325C6.26004 5.13325 6.56671 5.17325 6.88671 5.19325L7.82004 7.75325L6.50671 11.6866L4.32671 5.18659C4.68671 5.17325 5.01337 5.13325 5.01337 5.13325C5.33337 5.09325 5.30004 4.61992 4.97337 4.63992C4.97337 4.63992 4.00004 4.71325 3.37337 4.71325C3.26004 4.71325 3.12671 4.71325 2.98671 4.70658C4.06671 3.07992 5.90671 2.00659 8.00004 2.00659C9.56004 2.00659 10.98 2.59992 12.0467 3.57992C12.02 3.57992 11.9934 3.57325 11.9667 3.57325C11.38 3.57325 10.96 4.08659 10.96 4.63992C10.96 5.13325 11.2467 5.55325 11.5467 6.04658C11.7734 6.44658 12.04 6.95992 12.04 7.69992C12.04 8.21325 11.84 8.80658 11.5867 9.63992L10.9867 11.6399L8.82671 5.18659ZM13.26 5.12659C14.0085 6.49708 14.1925 8.10558 13.7729 9.60971C13.3533 11.1138 12.3632 12.3948 11.0134 13.1799L12.8467 7.88658C13.1867 7.03325 13.3 6.34658 13.3 5.73992C13.3 5.51992 13.2867 5.31325 13.26 5.12659Z"
    fill="currentColor"
  />
</svg>
