<svg width="24" height="24" fill="none" xmlns="http://www.w3.org/2000/svg"><path fill-rule="evenodd" clip-rule="evenodd" d="M9.9341 2.9342A5.75 5.75 0 0 1 14 1.25h3a.75.75 0 0 1 .75.75v4a.75.75 0 0 1-.75.75h-3a.2501.2501 0 0 0-.25.25v2.25H17a.7501.7501 0 0 1 .7276.9319l-1 4A.75.75 0 0 1 16 14.75h-2.25V22a.75.75 0 0 1-.75.75H9a.75.75 0 0 1-.75-.75v-7.25H6a.75.75 0 0 1-.75-.75v-4A.75.75 0 0 1 6 9.25h2.25V7a5.75 5.75 0 0 1 1.6841-4.0658ZM14 2.75A4.2499 4.2499 0 0 0 9.75 7v3a.75.75 0 0 1-.75.75H6.75v2.5H9a.75.75 0 0 1 .75.75v7.25h2.5V14a.75.75 0 0 1 .75-.75h2.4144l.625-2.5H13a.75.75 0 0 1-.75-.75V7A1.75 1.75 0 0 1 14 5.25h2.25v-2.5H14Z" fill="currenColor"/></svg>