<svg width="24" height="24" fill="none" xmlns="http://www.w3.org/2000/svg"><path d="M7.8 2h8.4001c3.2 0 5.8 2.6 5.8 5.8v8.4a5.8 5.8 0 0 1-5.8 5.8h-8.4C4.6 22 2 19.4 2 16.2V7.8A5.8 5.8 0 0 1 7.8 2Zm-.2 2A3.6 3.6 0 0 0 4 7.6v8.8C4 18.39 5.61 20 7.6 20h8.8001a3.6 3.6 0 0 0 3.6-3.6V7.6c0-1.99-1.61-3.6-3.6-3.6h-8.8Zm9.6501 1.5a1.2498 1.2498 0 0 1 1.25 1.25 1.2497 1.2497 0 0 1-1.25 1.25 1.2499 1.2499 0 0 1-.8839-2.1338 1.2499 1.2499 0 0 1 .8839-.3662Zm-5.25 1.5A5 5 0 1 1 12 17.0002 5 5 0 0 1 12 7Zm0 2A3 3 0 1 0 12 15 3 3 0 0 0 12 9Z" fill="currenColor"/></svg>